<svg xmlns="http://www.w3.org/2000/svg" width="64" height="64" viewBox="0 0 64 64" fill="none">
  <rect width="64" height="64" rx="12" fill="#6d28d9"/>
  <path d="M18 32C18 24.268 24.268 18 32 18C39.732 18 46 24.268 46 32C46 39.732 39.732 46 32 46C24.268 46 18 39.732 18 32Z" fill="white"/>
  <path d="M32 26C28.686 26 26 28.686 26 32C26 35.314 28.686 38 32 38C35.314 38 38 35.314 38 32C38 28.686 35.314 26 32 26ZM32 36C29.794 36 28 34.206 28 32C28 29.794 29.794 28 32 28C34.206 28 36 29.794 36 32C36 34.206 34.206 36 32 36Z" fill="#6d28d9"/>
  <path d="M32 22C27.582 22 24 25.582 24 30H26C26 26.686 28.686 24 32 24V22Z" fill="#6d28d9"/>
  <path d="M38 30C38 28.895 38.895 28 40 28C41.105 28 42 28.895 42 30C42 31.105 41.105 32 40 32C38.895 32 38 31.105 38 30Z" fill="#6d28d9"/>
</svg>
